<svg xmlns="http://www.w3.org/2000/svg" xmlns:xlink="http://www.w3.org/1999/xlink" fill="none" version="1.1" width="36" height="36" viewBox="0 0 36 36"><defs><linearGradient x1="0.5" y1="0" x2="0.5" y2="1" id="master_svg0_39_2370"><stop offset="0%" stop-color="#FFB12A" stop-opacity="1"/><stop offset="98.57142567634583%" stop-color="#FFD623" stop-opacity="1"/></linearGradient></defs><g><g><ellipse cx="18" cy="18" rx="18" ry="18" fill="url(#master_svg0_39_2370)" fill-opacity="1"/></g><g><path d="M10.4842290625,10.68002984375C11.951479062499999,9.21277784375,14.2990690625,9.21277784375,15.7663190625,10.68002984375L10.4842290625,15.92951984375C9.0169770625,14.49486984375,9.0169770625,12.11466984375,10.4842290625,10.68002984375ZM26.8847890625,15.92951984375L21.602689062499998,10.68002984375C23.0699890625,9.21277784375,25.4175890625,9.21277784375,26.8847890625,10.68002984375C28.3520890625,12.11466984375,28.3520890625,14.49486984375,26.8847890625,15.92951984375ZM23.8198890625,24.63518984375C23.7872890625,24.60258984375,23.7546890625,24.53738984375,23.7220890625,24.50478984375C25.124089062499998,23.16798984375,26.0044890625,21.276789843750002,26.0044890625,19.190069843750003C26.0044890625,15.14697984375,22.7112890625,11.853829843749999,18.6682090625,11.853829843749999C14.625129062500001,11.853829843749999,11.3319690625,15.14698984375,11.3319690625,19.190069843750003C11.3319690625,21.276789843750002,12.2123190625,23.16798984375,13.6143590625,24.50478984375C13.5817490625,24.53738984375,13.5491490625,24.56998984375,13.5165390625,24.63518984375L12.864429062500001,25.84158984375C12.6687990625,26.20028984375,12.7992190625,26.62408984375,13.157879062500001,26.81978984375C13.5165390625,27.01538984375,13.940409062499999,26.88498984375,14.1360490625,26.52628984375L14.7555490625,25.41768984375C15.8967390625,26.13508984375,17.2335690625,26.55888984375,18.700819062500003,26.55888984375C20.1680890625,26.55888984375,21.5048890625,26.13508984375,22.6460890625,25.41768984375L23.2655890625,26.52628984375C23.4611890625,26.88498984375,23.8850890625,27.01538984375,24.2437890625,26.81978984375C24.602389062500002,26.62408984375,24.7328890625,26.20028984375,24.537189062499998,25.84158984375L23.8198890625,24.63518984375ZM18.342159062500002,14.46226984375C18.342159062500002,14.33184984375,18.5051890625,14.234029843750001,18.700819062500003,14.234029843750001C18.8964490625,14.234029843750001,19.0268790625,14.33184984375,19.0268790625,14.46226984375L19.0268790625,17.88584984375C19.0268790625,18.016269843750003,18.8638490625,18.11408984375,18.700819062500003,18.11408984375C18.5051890625,18.11408984375,18.342159062500002,18.016269843750003,18.342159062500002,17.88584984375L18.342159062500002,14.46226984375ZM17.5596290625,20.39648984375L15.6685090625,21.34198984375C15.4728690625,21.439889843750002,15.2446290625,21.34198984375,15.1468190625,21.14638984375C15.0489990625,20.95078984375,15.114209062499999,20.689889843750002,15.3098390625,20.59208984375L17.2009690625,19.64658984375C17.3965990625,19.54872984375,17.6248390625,19.64658984375,17.7226490625,19.84218984375C17.820469062500003,20.037789843749998,17.755259062500002,20.298689843749997,17.5596290625,20.39648984375ZM18.6682090625,20.135589843749997C18.1465290625,20.135589843749997,17.7226490625,19.711789843749997,17.7226490625,19.190069843750003C17.7226490625,18.66837984375,18.1465290625,18.244509843750002,18.6682090625,18.244509843750002C19.1898990625,18.244509843750002,19.6137890625,18.66837984375,19.6137890625,19.190069843750003C19.6137890625,19.711789843749997,19.1898990625,20.135589843749997,18.6682090625,20.135589843749997Z" fill="#FFFFFF" fill-opacity="1"/></g></g></svg>