<svg xmlns="http://www.w3.org/2000/svg" xmlns:xlink="http://www.w3.org/1999/xlink" fill="none" version="1.1" width="36" height="36" viewBox="0 0 36 36"><defs><linearGradient x1="0.6386697888374329" y1="0" x2="0.6348114013671875" y2="1" id="master_svg0_46_4775"><stop offset="0%" stop-color="#0CA2FF" stop-opacity="1"/><stop offset="100%" stop-color="#98E4FF" stop-opacity="1"/></linearGradient></defs><g><g><ellipse cx="18" cy="18" rx="18" ry="18" fill="url(#master_svg0_46_4775)" fill-opacity="1"/></g><g><path d="M16.822097499999998,26.9600390625C17.8632575,26.9600390625,18.8264575,26.7933390625,19.712587499999998,26.4600390625C20.5787875,26.1386390625,21.371187499999998,25.6455390625,22.0421875,25.0103390625C22.7210875,24.3659390625,23.2584875,23.5871390625,23.6200875,22.7237390625C23.7588875,22.4011390625,23.7445875,22.1574390625,23.577087499999998,21.9899390625C23.4390875,21.8519390625,23.2320875,21.8376390625,22.956087500000002,21.9469390625C22.599487500000002,22.0849390625,22.2168875,22.1888390625,21.8091875,22.2578390625C21.372687499999998,22.3292390625,20.9308875,22.364039062499998,20.488487499999998,22.3617390625C19.189327499999997,22.3617390625,18.0558875,22.1055390625,17.0891075,21.5939390625C16.1494075,21.0965390625,15.3734275,20.3382390625,14.854487500000001,19.4103390625C14.3258475,18.4731290625,14.060627499999999,17.3629790625,14.060627499999999,16.080809062500002C14.060627499999999,15.591589062499999,14.1036375,15.099689062500001,14.190547500000001,14.6050890625C14.276567499999999,14.1104990625,14.3912475,13.7135690625,14.5355075,13.4143090625C14.6905175,13.1033990625,14.6932075,12.862369062500001,14.5444675,12.6894490625C14.394837500000001,12.5111390625,14.143957499999999,12.4914290625,13.7936175,12.6294090625C12.9141975,12.9759390625,12.1218875,13.5118990625,11.472977499999999,14.1991990625C10.8040275,14.906469062500001,10.2766505,15.7352490625,9.9193165,16.6408090625C9.5476445,17.5860190625,9.36029623,18.5936190625,9.367381042,19.609239062500002C9.367381042,20.6620390625,9.5483725,21.6342390625,9.9112525,22.5257390625C10.6347375,24.298739062499997,12.0491675,25.7005390625,13.8285675,26.4081390625C14.7371075,26.7754390625,15.7343575,26.9600390625,16.8212075,26.9600390625L16.822097499999998,26.9600390625ZM23.3091875,19.0743390625C23.4829875,19.0743390625,23.5805875,18.9820590625,23.602987499999998,18.7983790625C23.6719875,18.216869062500002,23.7463875,17.765289062500003,23.8269875,17.443619062499998C23.9076875,17.1156890625,24.0321875,16.8683890625,24.198887499999998,16.7017390625C24.370887500000002,16.5350790625,24.6244875,16.4078490625,24.957787500000002,16.3218290625C25.2910875,16.2358190625,25.7515875,16.146219062500002,26.3375875,16.054819062500002C26.5338875,16.0198790625,26.6314875,15.9222190625,26.6314875,15.7609390625C26.6314875,15.599659062499999,26.5454875,15.5019890625,26.3725875,15.467939062500001C25.9038875,15.383479062500001,25.4377875,15.2854790625,24.974787499999998,15.1740590625C24.636087500000002,15.0826590625,24.379887500000002,14.9554290625,24.2068875,14.7950490625C24.0348875,14.6337690625,23.9076875,14.3954290625,23.8278875,14.0782490625C23.7472875,13.7565790625,23.6719875,13.3049990625,23.6038875,12.7243890625C23.5805875,12.5398190625,23.4820875,12.448419062500001,23.3100875,12.448419062500001C23.1370875,12.448419062500001,23.0394875,12.5380190625,23.0161875,12.7154290625C22.9417875,13.302309062500001,22.8637875,13.7619590625,22.7831875,14.0952690625C22.7087875,14.4240990625,22.5851875,14.6740890625,22.412287499999998,14.8461190625C22.2455875,15.0136690625,21.992887500000002,15.140009062499999,21.653287499999998,15.2260190625C21.3137875,15.3066590625,20.8451875,15.3872990625,20.2465875,15.467939062500001C20.1749875,15.478229062499999,20.1085875,15.5115690625,20.0575875,15.5629190625C20.0104875,15.6178890625,19.9857875,15.6885990625,19.9885875,15.7609390625C19.9885875,15.9222190625,20.0745875,16.0207790625,20.2465875,16.054819062500002C20.8451875,16.1641290625,21.3137875,16.2644890625,21.653287499999998,16.3567790625C21.992887500000002,16.4481690625,22.2455875,16.5780890625,22.412287499999998,16.7447390625C22.5851875,16.9060190625,22.7087875,17.1479390625,22.7840875,17.4696090625C22.864687500000002,17.7921690625,22.9417875,18.2401690625,23.017087500000002,18.8153990625C23.026787499999998,18.887289062500003,23.059887500000002,18.9539990625,23.1110875,19.005349062500002C23.1662875,19.052739062500002,23.2373875,19.077439062499998,23.3100875,19.0743390625L23.3091875,19.0743390625ZM19.185747499999998,13.2324190625C19.2843075,13.2324190625,19.340757500000002,13.1813490625,19.3586775,13.077419062499999C19.427687499999998,12.720809062499999,19.4876875,12.4421490625,19.5396875,12.2405490625C19.596987499999997,12.0344690625,19.6740875,11.8785690625,19.7725875,11.7746290625C19.875687499999998,11.6662190625,20.0315875,11.5819890625,20.2385875,11.5246490625C20.4508875,11.4619290625,20.7447875,11.3929390625,21.1183875,11.3185690625C21.227687500000002,11.3006490625,21.2823875,11.2397190625,21.2823875,11.1366790625C21.2823875,11.0381190625,21.227687500000002,10.9816690625,21.1183875,10.9637490625C20.8259875,10.9030990625,20.535287500000003,10.8343790625,20.2465875,10.7576690625C20.0458875,10.6940590625,19.893587500000002,10.610729062499999,19.7896875,10.5067890625C19.6781875,10.3708290625,19.5985875,10.2116290625,19.556687500000002,10.0408690625C19.4867875,9.7628480625,19.4207875,9.4838660625,19.3586775,9.2040070625C19.340757500000002,9.0946951625,19.2834175,9.0400390625,19.185747499999998,9.0400390625C19.0871875,9.0400390625,19.0280575,9.0946951625,19.0047575,9.2040070625C18.9294975,9.5606150625,18.8640875,9.8401670625,18.8058475,10.0408690625C18.7688475,10.2133790625,18.6886975,10.3736890625,18.5728875,10.5067890625C18.4752175,10.610729062499999,18.3228975,10.6940590625,18.115927499999998,10.7576690625C17.9143275,10.8141190625,17.626707500000002,10.8831090625,17.2530775,10.9637490625C17.1437675,10.9816690625,17.0891075,11.0390190625,17.0891075,11.1366790625C17.0891075,11.2397190625,17.1437675,11.3006490625,17.2530775,11.3176690625C17.626707500000002,11.398309062500001,17.9179075,11.4699890625,18.1248875,11.5327090625C18.3309675,11.5909490625,18.486867500000002,11.6715890625,18.5908075,11.7746290625C18.6938475,11.8785690625,18.771797499999998,12.0344690625,18.823767500000002,12.2405490625C18.874837499999998,12.4421490625,18.9357675,12.720809062499999,19.0047575,13.077419062499999C19.0280575,13.1813490625,19.0880875,13.2333190625,19.185747499999998,13.2333190625L19.185747499999998,13.2324190625Z" fill="#FFFFFF" fill-opacity="1"/></g></g></svg>